<svg width="159" height="159" viewBox="0 0 159 159" fill="none" xmlns="http://www.w3.org/2000/svg">
<g clip-path="url(#clip0_30_16)">
<path d="M141.863 44.1667H17.1367C14.9345 44.1667 12.8225 45.0415 11.2654 46.5987C9.70819 48.1559 8.83337 50.2678 8.83337 52.47V133.03C8.83337 135.232 9.70819 137.344 11.2654 138.901C12.8225 140.459 14.9345 141.333 17.1367 141.333H141.863C144.066 141.333 146.178 140.459 147.735 138.901C149.292 137.344 150.167 135.232 150.167 133.03V52.47C150.167 50.2678 149.292 48.1559 147.735 46.5987C146.178 45.0415 144.066 44.1667 141.863 44.1667ZM141.333 132.5H17.6667V53H141.333V132.5Z" fill="#EFC18F"/>
<path d="M37.8066 85.9042C40.4272 85.9042 42.989 85.1271 45.1679 83.6712C47.3469 82.2152 49.0452 80.1459 50.048 77.7247C51.0509 75.3036 51.3133 72.6395 50.802 70.0692C50.2908 67.499 49.0289 65.1381 47.1758 63.285C45.3228 61.432 42.9618 60.17 40.3916 59.6588C37.8213 59.1475 35.1572 59.4099 32.7361 60.4128C30.315 61.4156 28.2456 63.1139 26.7897 65.2929C25.3337 67.4718 24.5566 70.0336 24.5566 72.6542C24.5566 76.1683 25.9526 79.5385 28.4375 82.0233C30.9223 84.5082 34.2925 85.9042 37.8066 85.9042ZM37.8066 65.5875C39.2113 65.5524 40.5945 65.9368 41.7796 66.6916C42.9647 67.4465 43.8979 68.5375 44.46 69.8252C45.022 71.113 45.1874 72.5391 44.935 73.9213C44.6826 75.3036 44.0239 76.5792 43.043 77.5852C42.0622 78.5913 40.8036 79.282 39.4282 79.5693C38.0528 79.8566 36.623 79.7274 35.3214 79.1981C34.0198 78.6688 32.9056 77.7636 32.121 76.5979C31.3364 75.4323 30.9171 74.0593 30.9166 72.6542C30.9161 70.8102 31.6363 69.039 32.9236 67.7187C34.2109 66.3984 35.9632 65.6336 37.8066 65.5875Z" fill="#EFC18F"/>
<path d="M34.8916 123.667L61.3916 97.1667L75.4366 111.212L62.9816 123.667H71.8149L104.763 90.7183L132.5 118.234V109.401L106.883 83.9167C106.296 83.3341 105.502 83.0072 104.675 83.0072C103.848 83.0072 103.054 83.3341 102.467 83.9167L79.6766 106.707L63.4674 90.5417C62.8801 89.9591 62.0864 89.6322 61.2591 89.6322C60.4318 89.6322 59.6381 89.9591 59.0508 90.5417L26.1466 123.667H34.8916Z" fill="#EFC18F"/>
<path d="M133.118 13.25C133.118 12.0786 132.653 10.9552 131.825 10.1269C130.996 9.29864 129.873 8.83331 128.702 8.83331H31.535C30.3636 8.83331 29.2402 9.29864 28.4119 10.1269C27.5836 10.9552 27.1183 12.0786 27.1183 13.25V17.6666H133.118V13.25Z" fill="#EFC18F"/>
<path d="M141.863 30.9167C141.863 29.7453 141.398 28.6219 140.57 27.7936C139.741 26.9653 138.618 26.5 137.447 26.5H22.6133C21.4419 26.5 20.3186 26.9653 19.4903 27.7936C18.662 28.6219 18.1967 29.7453 18.1967 30.9167V35.3333H141.863V30.9167Z" fill="#EFC18F"/>
</g>
<defs>
<clipPath id="clip0_30_16">
<rect width="159" height="159" fill="white"/>
</clipPath>
</defs>
</svg>
