<svg width="35" height="35" viewBox="0 0 35 35" fill="none" xmlns="http://www.w3.org/2000/svg">
<path d="M6.22125 23.4208C7.45507 25.9153 9.45612 27.9485 11.9306 29.222C14.3874 30.4834 17.1885 30.9094 19.9092 30.4353C22.6383 29.9556 25.1387 28.6048 27.036 26.5853C28.951 24.5468 30.1703 21.9536 30.5185 19.1785C30.8724 16.397 30.3396 13.5749 28.996 11.1139C27.665 8.67164 25.5849 6.72138 23.0621 5.55034C20.5562 4.38974 17.7401 4.07844 15.0412 4.66367C12.3433 5.24846 10.1325 6.57846 8.30375 8.68138C8.08354 8.91471 7.23187 9.8568 6.52458 11.2787M10.9375 11.6666L5.67437 12.7166L4.375 7.29159M17.5 13.1249V18.9583L21.875 21.8749" stroke="#EADEE2" stroke-width="2" stroke-linecap="round" stroke-linejoin="round"/>
</svg>
