<svg width="32" height="32" viewBox="0 0 32 32" fill="none" xmlns="http://www.w3.org/2000/svg">
<path d="M30.25 27.0835V16.4229C30.25 15.5638 30.0752 14.7138 29.7364 13.9244C29.3975 13.135 28.9015 12.4229 28.2787 11.8312L18.1818 2.24095C17.5933 1.68186 16.8125 1.37012 16.0008 1.37012C15.189 1.37012 14.4083 1.68186 13.8198 2.24095L3.72125 11.8312C3.09845 12.4229 2.60252 13.135 2.26364 13.9244C1.92476 14.7138 1.75 15.5638 1.75 16.4229V27.0835C1.75 27.9233 2.08363 28.7288 2.6775 29.3226C3.27136 29.9165 4.07681 30.2501 4.91667 30.2501H27.0833C27.9232 30.2501 28.7286 29.9165 29.3225 29.3226C29.9164 28.7288 30.25 27.9233 30.25 27.0835Z" stroke="#EADEE2" stroke-width="2" stroke-linecap="round" stroke-linejoin="round"/>
<path d="M11.25 20.7502C11.25 19.9103 11.5836 19.1049 12.1775 18.511C12.7714 17.9171 13.5768 17.5835 14.4167 17.5835H17.5833C18.4232 17.5835 19.2286 17.9171 19.8225 18.511C20.4164 19.1049 20.75 19.9103 20.75 20.7502V30.2502H11.25V20.7502Z" stroke="#EADEE2" stroke-width="2" stroke-linecap="round" stroke-linejoin="round"/>
</svg>
