<svg width="184" height="184" viewBox="0 0 184 184" fill="none" xmlns="http://www.w3.org/2000/svg">
<path d="M24.4375 69H34.5C35.2906 69 35.9375 68.3531 35.9375 67.5625V35.9375H67.5625C68.3531 35.9375 69 35.2906 69 34.5V24.4375C69 23.6469 68.3531 23 67.5625 23H35.2188C28.4625 23 23 28.4625 23 35.2188V67.5625C23 68.3531 23.6469 69 24.4375 69ZM116.438 35.9375H148.062V67.5625C148.062 68.3531 148.709 69 149.5 69H159.562C160.353 69 161 68.3531 161 67.5625V35.2188C161 28.4625 155.538 23 148.781 23H116.438C115.647 23 115 23.6469 115 24.4375V34.5C115 35.2906 115.647 35.9375 116.438 35.9375ZM67.5625 148.062H35.9375V116.438C35.9375 115.647 35.2906 115 34.5 115H24.4375C23.6469 115 23 115.647 23 116.438V148.781C23 155.538 28.4625 161 35.2188 161H67.5625C68.3531 161 69 160.353 69 159.562V149.5C69 148.709 68.3531 148.062 67.5625 148.062ZM159.562 115H149.5C148.709 115 148.062 115.647 148.062 116.438V148.062H116.438C115.647 148.062 115 148.709 115 149.5V159.562C115 160.353 115.647 161 116.438 161H148.781C155.538 161 161 155.538 161 148.781V116.438C161 115.647 160.353 115 159.562 115ZM162.438 85.5312H21.5625C20.7719 85.5312 20.125 86.1781 20.125 86.9688V97.0312C20.125 97.8219 20.7719 98.4688 21.5625 98.4688H162.438C163.228 98.4688 163.875 97.8219 163.875 97.0312V86.9688C163.875 86.1781 163.228 85.5312 162.438 85.5312Z" fill="#EFC18F"/>
</svg>
