<svg width="38" height="38" viewBox="0 0 38 38" fill="none" xmlns="http://www.w3.org/2000/svg">
<path d="M32.0625 19.9026V18.0857L34.3425 16.0907C34.7628 15.7202 35.0386 15.2131 35.1212 14.659C35.2037 14.1049 35.0878 13.5394 34.7937 13.0626L31.9912 8.31256C31.783 7.95187 31.4836 7.65228 31.123 7.44385C30.7624 7.23543 30.3534 7.12548 29.9369 7.12506C29.6788 7.12308 29.4221 7.16319 29.1769 7.24381L26.2912 8.21756C25.793 7.88649 25.2733 7.58896 24.7356 7.32693L24.13 4.33443C24.0214 3.78771 23.724 3.2966 23.2898 2.94708C22.8556 2.59755 22.3123 2.41188 21.755 2.42256H16.1975C15.6402 2.41188 15.0969 2.59755 14.6627 2.94708C14.2285 3.2966 13.9311 3.78771 13.8225 4.33443L13.2169 7.32693C12.6753 7.58889 12.1516 7.88642 11.6494 8.21756L8.82312 7.19631C8.57528 7.13173 8.31864 7.10767 8.06312 7.12506C7.64663 7.12548 7.23758 7.23543 6.877 7.44385C6.51642 7.65228 6.21699 7.95187 6.00874 8.31256L3.20624 13.0626C2.92907 13.5387 2.82607 14.0965 2.91489 14.6402C3.00371 15.184 3.27883 15.68 3.69312 16.0432L5.93749 18.0976V19.9144L3.69312 21.9094C3.26713 22.2752 2.98449 22.78 2.89536 23.3344C2.80623 23.8887 2.91637 24.4567 3.20624 24.9376L6.00874 29.6876C6.21699 30.0482 6.51642 30.3478 6.877 30.5563C7.23758 30.7647 7.64663 30.8746 8.06312 30.8751C8.32122 30.877 8.57792 30.8369 8.82312 30.7563L11.7087 29.7826C12.2069 30.1136 12.7266 30.4112 13.2644 30.6732L13.87 33.6657C13.9786 34.2124 14.276 34.7035 14.7102 35.053C15.1444 35.4026 15.6877 35.5882 16.245 35.5776H21.85C22.4073 35.5882 22.9506 35.4026 23.3848 35.053C23.819 34.7035 24.1164 34.2124 24.225 33.6657L24.8306 30.6732C25.3722 30.4112 25.8958 30.1137 26.3981 29.7826L29.2719 30.7563C29.5171 30.8369 29.7738 30.877 30.0319 30.8751C30.4484 30.8746 30.8574 30.7647 31.218 30.5563C31.5786 30.3478 31.878 30.0482 32.0862 29.6876L34.7937 24.9376C35.0709 24.4614 35.1739 23.9037 35.0851 23.3599C34.9963 22.8161 34.7212 22.3202 34.3069 21.9569L32.0625 19.9026ZM29.9369 28.5001L25.8637 27.1226C24.9103 27.9302 23.8205 28.5615 22.6456 28.9869L21.8025 33.2501H16.1975L15.3544 29.0344C14.1887 28.5969 13.1049 27.9667 12.1481 27.1701L8.06312 28.5001L5.26062 23.7501L8.49062 20.9001C8.27105 19.6708 8.27105 18.4124 8.49062 17.1832L5.26062 14.2501L8.06312 9.50006L12.1362 10.8776C13.0897 10.0699 14.1795 9.43861 15.3544 9.01318L16.1975 4.75006H21.8025L22.6456 8.96568C23.8112 9.40318 24.8951 10.0334 25.8519 10.8301L29.9369 9.50006L32.7394 14.2501L29.5094 17.1001C29.7289 18.3293 29.7289 19.5877 29.5094 20.8169L32.7394 23.7501L29.9369 28.5001Z" fill="#EADEE2"/>
<path d="M19 26.125C17.5908 26.125 16.2133 25.7071 15.0416 24.9242C13.8699 24.1413 12.9566 23.0285 12.4174 21.7266C11.8781 20.4247 11.737 18.9921 12.0119 17.61C12.2868 16.2279 12.9654 14.9583 13.9619 13.9619C14.9583 12.9654 16.2279 12.2868 17.61 12.0119C18.9921 11.737 20.4247 11.8781 21.7266 12.4174C23.0285 12.9566 24.1413 13.8699 24.9242 15.0416C25.7071 16.2133 26.125 17.5908 26.125 19C26.1345 19.9383 25.9567 20.8691 25.6021 21.7379C25.2474 22.6066 24.7229 23.3958 24.0594 24.0594C23.3958 24.7229 22.6066 25.2474 21.7379 25.6021C20.8691 25.9567 19.9383 26.1345 19 26.125ZM19 14.25C18.3722 14.2354 17.748 14.3482 17.1651 14.5818C16.5822 14.8153 16.0527 15.1647 15.6087 15.6087C15.1647 16.0527 14.8153 16.5822 14.5818 17.1651C14.3482 17.748 14.2354 18.3722 14.25 19C14.2354 19.6278 14.3482 20.252 14.5818 20.8349C14.8153 21.4178 15.1647 21.9473 15.6087 22.3913C16.0527 22.8353 16.5822 23.1847 17.1651 23.4182C17.748 23.6518 18.3722 23.7646 19 23.75C19.6278 23.7646 20.252 23.6518 20.8349 23.4182C21.4178 23.1847 21.9473 22.8353 22.3913 22.3913C22.8353 21.9473 23.1847 21.4178 23.4182 20.8349C23.6518 20.252 23.7646 19.6278 23.75 19C23.7646 18.3722 23.6518 17.748 23.4182 17.1651C23.1847 16.5822 22.8353 16.0527 22.3913 15.6087C21.9473 15.1647 21.4178 14.8153 20.8349 14.5818C20.252 14.3482 19.6278 14.2354 19 14.25Z" fill="#EADEE2"/>
</svg>
